<svg xmlns="http://www.w3.org/2000/svg" viewBox="0 0 198.5 198.5"><defs><style>.cls-1{fill:#6e768e;}</style></defs><g id="レイヤー_2" data-name="レイヤー 2"><g id="レイヤー_1-2" data-name="レイヤー 1"><path class="cls-1" d="M177.89,0H20.61A20.64,20.64,0,0,0,0,20.61V177.89A20.64,20.64,0,0,0,20.61,198.5H177.89a20.64,20.64,0,0,0,20.61-20.61V20.61A20.64,20.64,0,0,0,177.89,0Zm1.61,170.38a9.13,9.13,0,0,1-9.12,9.12H28.12A9.13,9.13,0,0,1,19,170.38V28.12A9.13,9.13,0,0,1,28.12,19H170.38a9.13,9.13,0,0,1,9.12,9.12Z"/><circle class="cls-1" cx="99.25" cy="49.63" r="23.68"/><path class="cls-1" d="M125.24,165a2.31,2.31,0,0,1-2.31-2.3V83.88a2.3,2.3,0,0,0-2.3-2.3H68.1a2.3,2.3,0,0,0-2.31,2.3V86.8a2.3,2.3,0,0,0,2.31,2.3h5.16a2.31,2.31,0,0,1,2.31,2.3v71.34a2.31,2.31,0,0,1-2.31,2.3H68.1a2.3,2.3,0,0,0-2.31,2.31v2.91a2.3,2.3,0,0,0,2.31,2.3h62.3a2.3,2.3,0,0,0,2.31-2.3v-2.91A2.3,2.3,0,0,0,130.4,165Z"/></g></g></svg>