<svg xmlns="http://www.w3.org/2000/svg" viewBox="0 0 266.78 220.81"><defs><style>.cls-1{fill:#6e768e;stroke:#6e768e;stroke-miterlimit:10;}</style></defs><g id="レイヤー_2" data-name="レイヤー 2"><g id="レイヤー_1-2" data-name="レイヤー 1"><path class="cls-1" d="M169.75,78.64a61,61,0,1,0-7.37,86A61,61,0,0,0,169.75,78.64ZM152.61,153a45.83,45.83,0,1,1,5.54-64.59A45.89,45.89,0,0,1,152.61,153Z"/><path class="cls-1" d="M81.15,156.77l-3.48-4.13-3.48-4.14-8.11,6.83c-5.59-3.52-12.64-3.5-17.5.59L5.35,192.33c-6.17,5.19-6.5,15-.73,21.83s15.46,8.18,21.63,3l43.23-36.41c4.86-4.09,6.08-11,3.56-17.14ZM52.4,178.14,26.59,199.87a3.25,3.25,0,0,1-4.16-4.94L48.24,173.2a3.25,3.25,0,0,1,4.16,4.94Z"/><path class="cls-1" d="M232,51.5H155.54a6.27,6.27,0,0,0-5.2,2.77A68,68,0,0,1,166.73,64H232a6.27,6.27,0,1,0,0-12.53Z"/><path class="cls-1" d="M124,49a68.47,68.47,0,0,1,7.05.36A12,12,0,0,0,113,49.9,69.2,69.2,0,0,1,124,49Z"/><path class="cls-1" d="M232,146H185.94a68.15,68.15,0,0,1-7.55,12.53H232A6.27,6.27,0,1,0,232,146Z"/><path class="cls-1" d="M232,98.3H189.59A69,69,0,0,1,192,110.83h40a6.27,6.27,0,1,0,0-12.53Z"/><path class="cls-1" d="M247.15.5H103.4A19.14,19.14,0,0,0,84.28,19.62V61.2a67.92,67.92,0,0,1,19-9.23V28.89a8.12,8.12,0,0,1,8.11-8.11H239.17a8.12,8.12,0,0,1,8.11,8.11V177.11a8.12,8.12,0,0,1-8.11,8.11H133.62a69,69,0,0,1-20.69,0h-1.54a8.1,8.1,0,0,1-4.09-1.11,67.93,67.93,0,0,1-23-10.31v12.58A19.14,19.14,0,0,0,103.4,205.5H247.15a19.15,19.15,0,0,0,19.13-19.12V19.62A19.15,19.15,0,0,0,247.15.5Z"/><path class="cls-1" d="M115.27,150.5a7,7,0,0,1-4.24-1.43l-21-16a7,7,0,0,1,8.49-11.14L114,133.7l28.75-37.46a7,7,0,0,1,11.11,8.52l-33,43A7,7,0,0,1,115.27,150.5Z"/></g></g></svg>