<svg xmlns="http://www.w3.org/2000/svg" viewBox="0 0 252.06 205"><defs><style>.cls-1{fill:#6e768e;}</style></defs><g id="レイヤー_2" data-name="レイヤー 2"><g id="レイヤー_1-2" data-name="レイヤー 1"><circle class="cls-1" cx="40.5" cy="58.38" r="14.5"/><circle class="cls-1" cx="40.5" cy="103.28" r="14.5"/><circle class="cls-1" cx="40.5" cy="151.62" r="14.5"/><rect class="cls-1" x="65" y="52.12" width="89" height="12.53" rx="6.26"/><path class="cls-1" d="M250.69,33.31,220.51,7.05a4,4,0,0,0-5.64.39l-99.13,113.9a3.94,3.94,0,0,0-1,2.35l-9.72,41.2a4,4,0,0,0,5.34,4.65l40-15.54a4,4,0,0,0,2-1.71L251.08,39A4,4,0,0,0,250.69,33.31ZM120.49,153.09l2.81-14.21,10.5,8.48Zm27.65-14.15L130,123.18,218.67,21.35l18.1,15.76Z"/><path class="cls-1" d="M130.92,97H71.26a6.27,6.27,0,0,0,0,12.53H120Z"/><path class="cls-1" d="M105.53,145.35H71.26a6.27,6.27,0,0,0,0,12.53h31.31Z"/><path class="cls-1" d="M182,38V19.12A19.15,19.15,0,0,0,162.88,0H19.12A19.15,19.15,0,0,0,0,19.12V185.88A19.15,19.15,0,0,0,19.12,205H162.88A19.15,19.15,0,0,0,182,185.88V124.41L164,145v32.64a8.23,8.23,0,0,1-8.22,8.22H26.22A8.23,8.23,0,0,1,18,177.64V27.36a8.23,8.23,0,0,1,8.22-8.22H155.78A8.23,8.23,0,0,1,164,27.36V58Z"/></g></g></svg>