<svg xmlns="http://www.w3.org/2000/svg" viewBox="0 0 182 205"><defs><style>.cls-1{fill:#6e768e;}</style></defs><g id="レイヤー_2" data-name="レイヤー 2"><g id="レイヤー_1-2" data-name="レイヤー 1"><path class="cls-1" d="M162.88,0H19.12A19.15,19.15,0,0,0,0,19.12V185.88A19.15,19.15,0,0,0,19.12,205H162.88A19.15,19.15,0,0,0,182,185.88V19.12A19.15,19.15,0,0,0,162.88,0Zm-.51,176a8.05,8.05,0,0,1-8,8H27.67a8.05,8.05,0,0,1-8-8V29a8.05,8.05,0,0,1,8-8H154.33a8.05,8.05,0,0,1,8,8Z"/><circle class="cls-1" cx="43" cy="62" r="12"/><rect class="cls-1" x="65" y="56" width="89" height="12.53" rx="6.26"/><circle class="cls-1" cx="43" cy="104.5" r="12"/><rect class="cls-1" x="65" y="97.8" width="89" height="12.53" rx="6.26"/><circle class="cls-1" cx="43" cy="147" r="12"/><rect class="cls-1" x="65" y="140.47" width="89" height="12.53" rx="6.26"/></g></g></svg>