<svg xmlns="http://www.w3.org/2000/svg" viewBox="0 0 156.02 156.02"><defs><style>.cls-1{fill:#fff;}.cls-2{fill:#b4b3ba;}.cls-3{fill:#092992;}.cls-4{fill:#ff9400;}</style></defs><g id="レイヤー_2" data-name="レイヤー 2"><g id="レイヤー_2-2" data-name="レイヤー 2"><rect class="cls-1" width="156.02" height="156.02"/><path class="cls-2" d="M39.67,115.34s-3.74-5.24,0-12.34S53.88,84.68,66.59,75.7,95.81,61.08,101.74,60c8.22-1.49,15.59.82,16.45,6a48.16,48.16,0,0,1,.75,7.14s2.24-5.64,2.24-10.13-1.12-5.61-3-7.48-6-3-9.72-3-18.89,1.4-33,10S47.15,80.94,39.67,93.65,34.44,113.09,39.67,115.34Z"/><path class="cls-3" d="M136.44,56.56c-2.92-4.51-8.37-7-15.46-7.56a15,15,0,0,1,6,5.22c8.37,13-6.51,37.46-33.25,54.75s-55.19,20.82-63.56,7.87c-2.49-3.84-2.91-8.71-1.59-14.1-6.1,10.18-7.78,19.54-3.64,25.94,8.86,13.7,41,8.66,71.79-11.26S145.3,70.26,136.44,56.56Z"/><polygon class="cls-4" points="76.69 7.28 71.45 66.36 45.96 46.43 65.09 70.47 16.49 77.95 63.21 83.93 45.65 106.36 70.33 87.67 76.69 148.74 82.29 87.67 101.74 102.63 88.47 83.93 139.53 78.01 86.78 71.22 105.81 46.87 82.29 63.74 76.69 7.28"/><circle class="cls-4" cx="121.74" cy="30.84" r="2.24"/><polygon class="cls-4" points="121.74 16.96 120.14 29.27 123.34 29.27 121.74 16.96"/><polygon class="cls-4" points="121.74 44.64 123.34 32.33 120.14 32.33 121.74 44.64"/><polygon class="cls-4" points="108.12 31.01 120.43 32.61 120.43 29.41 108.12 31.01"/><polygon class="cls-4" points="134.98 31.01 122.67 29.41 122.67 32.61 134.98 31.01"/></g></g></svg>