<svg xmlns="http://www.w3.org/2000/svg" viewBox="0 0 364.84 189.17"><defs><style>.cls-1{fill:#b4b3ba;}.cls-2{fill:#092992;}.cls-3{fill:#ff9400;}</style></defs><g id="レイヤー_2" data-name="レイヤー 2"><g id="レイヤー_2-2" data-name="レイヤー 2"><path class="cls-1" d="M31,144.5s-5-7,0-16.5,19-24.5,36-36.5,39.07-19.56,47-21c11-2,20.85,1.1,22,8A64.49,64.49,0,0,1,137,88s3-7.54,3-13.54-1.5-7.5-4-10-8-4-13-4S97.75,62.37,78.87,73.94,41,98.5,31,115.5,24,141.5,31,144.5Z"/><path class="cls-2" d="M160.41,65.9c-3.9-6-11.19-9.33-20.67-10.11a20,20,0,0,1,8,7c11.2,17.31-8.71,50.09-44.46,73.22s-73.81,27.84-85,10.52c-3.32-5.14-3.88-11.65-2.12-18.86C8,141.27,5.78,153.78,11.31,162.34c11.85,18.32,54.83,11.58,96-15.05S172.26,84.22,160.41,65.9Z"/><polygon class="cls-3" points="80.5 0 73.5 79 39.42 52.35 65 84.5 0 94.5 62.48 102.5 39 132.5 72 107.5 80.5 189.17 88 107.5 114 127.5 96.27 102.5 164.55 94.58 94 85.5 119.45 52.94 88 75.5 80.5 0"/><circle class="cls-3" cx="140.75" cy="31.5" r="3"/><polygon class="cls-3" points="140.75 12.95 138.6 29.41 142.9 29.41 140.75 12.95"/><polygon class="cls-3" points="140.75 49.96 142.9 33.5 138.6 33.5 140.75 49.96"/><polygon class="cls-3" points="122.54 31.73 139 33.87 139 29.59 122.54 31.73"/><polygon class="cls-3" points="158.46 31.73 142 29.59 142 33.87 158.46 31.73"/><path class="cls-2" d="M121.43,177.59h1.09c.13,2,.46,3.1,1.35,4.16a6.32,6.32,0,0,0,4.95,1.88c3,0,4.79-1.58,4.79-4.29s-1.23-3.86-6.14-6.24c-2.81-1.35-3.83-2-4.76-3a5.49,5.49,0,0,1-1.45-3.89,6.18,6.18,0,0,1,2.08-4.79,6.76,6.76,0,0,1,4.72-1.58,13.36,13.36,0,0,1,3.9.56,6.39,6.39,0,0,0,1.22.16,6,6,0,0,0,2-.49l-.2,6.5h-1.09a7.64,7.64,0,0,0-.92-3.47,5.29,5.29,0,0,0-4.76-2.34,4.3,4.3,0,0,0-3.5,1.39,4.71,4.71,0,0,0-1,2.87c0,2.18,1.05,3.27,5,5.11,4.13,2,5.68,3,6.6,4.49a6.27,6.27,0,0,1,.93,3.63,5.51,5.51,0,0,1-1.89,4.49,7.85,7.85,0,0,1-5.37,1.82,19.65,19.65,0,0,1-4.43-.56,6.22,6.22,0,0,0-1.09-.1,12.24,12.24,0,0,0-2.27.33Z"/><path class="cls-2" d="M139.28,183.37c2.67-.07,2.87-.33,2.87-3.37V164.45c0-3.07-.2-3.26-2.87-3.4v-.79h8.78v.79c-2.71.14-2.91.33-2.91,3.4V180c0,3,.24,3.3,2.91,3.37v.82h-8.78Z"/><path class="cls-2" d="M156.21,180c0,3,.2,3.3,2.57,3.37v.82h-8.05v-.82c2.34-.07,2.54-.33,2.54-3.37V164.45c0-3.07-.16-3.3-2.54-3.4v-.79h9.14c6,0,8.85,1.88,8.85,5.91a6.42,6.42,0,0,1-1.12,3.73c-1,1.29-3.07,2.18-5.55,2.44v.3a5.54,5.54,0,0,1,2.64,1.19c1,.89,1.65,1.88,2.74,4.32,1.62,3.66,1.88,4.13,2.54,4.69a2.51,2.51,0,0,0,1.75.62v.73h-5.15a64.37,64.37,0,0,0-3.59-8.55c-.8-1.42-1.42-2.08-2.41-2.41a6.86,6.86,0,0,0-2.35-.39h-2Zm2.74-8.15a8.34,8.34,0,0,0,4.55-1,5,5,0,0,0,2-4.42c0-3.46-2.05-5.15-6.27-5.15h-3v10.6Z"/><path class="cls-2" d="M173.37,183.37c2.67-.07,2.87-.33,2.87-3.37V164.45c0-3.07-.2-3.26-2.87-3.4v-.79h8.78v.79c-2.71.14-2.91.33-2.91,3.4V180c0,3,.23,3.3,2.91,3.37v.82h-8.78Z"/><path class="cls-2" d="M192.71,160.26v.79c-2.41.14-2.58.33-2.58,3.4v9.44c0,3.5.33,5.35,1.19,6.87,1,1.78,2.81,2.67,5.28,2.67,2.91,0,5.08-1.12,6.17-3.13.73-1.42,1.06-3.44,1.06-6.64v-7.23c0-3-.1-3.92-.46-4.45s-1.12-.89-2.51-.93v-.79h7.36v.79c-1.29,0-1.95.3-2.41.93s-.63,1.72-.63,4.45v7.33c0,3.9-.46,6-1.68,7.72-1.42,2-4.06,3.14-7.29,3.14s-6-1.16-7.5-3.07c-1.15-1.48-1.58-3.37-1.58-6.8v-10.3c0-3.07-.17-3.26-2.54-3.4v-.79Z"/><path class="cls-2" d="M211.09,177.59h1.09c.13,2,.46,3.1,1.35,4.16a6.31,6.31,0,0,0,4.95,1.88c3,0,4.79-1.58,4.79-4.29s-1.23-3.86-6.14-6.24c-2.81-1.35-3.83-2-4.76-3a5.49,5.49,0,0,1-1.45-3.89,6.18,6.18,0,0,1,2.08-4.79,6.75,6.75,0,0,1,4.72-1.58,13.41,13.41,0,0,1,3.9.56,6.39,6.39,0,0,0,1.22.16,6,6,0,0,0,2-.49l-.2,6.5h-1.09a7.64,7.64,0,0,0-.92-3.47,5.29,5.29,0,0,0-4.76-2.34,4.3,4.3,0,0,0-3.5,1.39,4.71,4.71,0,0,0-.95,2.87c0,2.18,1,3.27,5,5.11,4.13,2,5.68,3,6.6,4.49a6.27,6.27,0,0,1,.93,3.63,5.51,5.51,0,0,1-1.89,4.49,7.86,7.86,0,0,1-5.38,1.82,19.64,19.64,0,0,1-4.42-.56,6.22,6.22,0,0,0-1.09-.1,12.13,12.13,0,0,0-2.27.33Z"/><path class="cls-2" d="M256.71,167.82a8.86,8.86,0,0,0-1.65-4.45,7.08,7.08,0,0,0-5.52-2.68,6.73,6.73,0,0,0-5.77,3.2,15.3,15.3,0,0,0-1.92,8c0,6.9,3.31,11.42,8.29,11.42a8.27,8.27,0,0,0,7.92-6l1,.43a11.29,11.29,0,0,1-2.71,4.35,10.09,10.09,0,0,1-7.1,2.51,10.24,10.24,0,0,1-7.59-3.23,12.68,12.68,0,0,1-3.1-8.88c0-4.62,1.68-8.55,4.65-10.73a10.65,10.65,0,0,1,6.24-2,13.9,13.9,0,0,1,4.19.73,7.46,7.46,0,0,0,2.45.56,4.51,4.51,0,0,0,1.71-.46v7.19Z"/><path class="cls-2" d="M263.77,169.27a8,8,0,0,1,5.74-2.21c4.82,0,8,3.4,8,8.58,0,5.51-3.17,9-8.19,9-4.78,0-7.95-3.4-7.95-8.52A9.88,9.88,0,0,1,263.77,169.27Zm5.64,14.56c3.23,0,5-2.81,5-7.89s-1.85-8.12-5.09-8.12-4.91,2.81-4.91,7.86S266.24,183.83,269.41,183.83Z"/><path class="cls-2" d="M286.54,182.28a2.33,2.33,0,1,1-2.31-2.31A2.26,2.26,0,0,1,286.54,182.28Z"/><path class="cls-2" d="M289.25,188c1.74-1,2.54-2,2.54-3.2,0-.4-.14-.53-.63-.67-1.42-.33-2-.89-2-2a2.12,2.12,0,0,1,2.21-2.17c1.55,0,2.54,1.18,2.54,3a6.34,6.34,0,0,1-1.42,3.86,7.14,7.14,0,0,1-2.64,1.95Z"/><path class="cls-2" d="M307.11,183.4c2.64-.1,2.87-.33,2.87-3.37V164.45c0-3.07-.2-3.26-2.87-3.36v-.83h8.78v.83c-2.71.1-2.9.29-2.9,3.36V183.2h4.65c4,0,5.38-1.29,6.34-5.71l1,.13-.63,6.57H307.11Z"/><path class="cls-2" d="M332.37,179.5c0,1.95.09,2.81.42,3.27a1.84,1.84,0,0,0,1.62.69,3.84,3.84,0,0,0,2.08-.59l.3.86a7,7,0,0,1-3.33.82,3.62,3.62,0,0,1-3.41-1.61c-.36-.66-.46-1.39-.46-3.83V168.42h-2.08v-.76c1.95-.17,2.94-1.46,3.44-4.56l1.51-.43c-.06,1.42-.09,2.68-.09,4.85h4v.9h-4Z"/><path class="cls-2" d="M355.28,160c-.13,2.11-.2,4-.2,6.57v12.77c.07,3.1.07,3.13.23,3.53s.6.59,1.55.59h.37v.73l-4.62.27-.14-2.88a6.28,6.28,0,0,1-5.61,3.07,6.43,6.43,0,0,1-4.85-2.27,9.67,9.67,0,0,1-1.88-6.14c0-5.45,3-9.18,7.46-9.18a5.84,5.84,0,0,1,4.78,2.21v-5c0-3.2,0-3.27-2.44-3.3v-.73Zm-7.49,7.89c-3,0-4.59,2.8-4.59,8s1.48,7.83,4.29,7.83c3.13,0,5-2.91,5-7.86C352.47,170.73,350.79,167.89,347.79,167.89Z"/><path class="cls-2" d="M364.84,182.28a2.33,2.33,0,1,1-2.31-2.31A2.26,2.26,0,0,1,364.84,182.28Z"/></g></g></svg>