<svg xmlns="http://www.w3.org/2000/svg" viewBox="0 0 164.55 189.17"><defs><style>.cls-1{fill:#b4b3ba;}.cls-2{fill:#092992;}.cls-3{fill:#ff9400;}</style></defs><g id="レイヤー_2" data-name="レイヤー 2"><g id="レイヤー_2-2" data-name="レイヤー 2"><path class="cls-1" d="M31,144.5s-5-7,0-16.5,19-24.5,36-36.5,39.07-19.56,47-21c11-2,20.85,1.1,22,8A64.49,64.49,0,0,1,137,88s3-7.54,3-13.54-1.5-7.5-4-10-8-4-13-4S97.75,62.37,78.87,73.94,41,98.5,31,115.5,24,141.5,31,144.5Z"/><path class="cls-2" d="M160.41,65.9c-3.9-6-11.19-9.33-20.67-10.11a20,20,0,0,1,8,7c11.2,17.31-8.71,50.09-44.46,73.22s-73.81,27.84-85,10.52c-3.32-5.14-3.88-11.65-2.12-18.86C8,141.27,5.78,153.78,11.31,162.34c11.85,18.32,54.83,11.58,96-15.05S172.26,84.22,160.41,65.9Z"/><polygon class="cls-3" points="80.5 0 73.5 79 39.42 52.35 65 84.5 0 94.5 62.48 102.5 39 132.5 72 107.5 80.5 189.17 88 107.5 114 127.5 96.27 102.5 164.55 94.58 94 85.5 119.45 52.94 88 75.5 80.5 0"/><circle class="cls-3" cx="140.75" cy="31.5" r="3"/><polygon class="cls-3" points="140.75 12.95 138.6 29.41 142.9 29.41 140.75 12.95"/><polygon class="cls-3" points="140.75 49.96 142.9 33.5 138.6 33.5 140.75 49.96"/><polygon class="cls-3" points="122.54 31.73 139 33.87 139 29.59 122.54 31.73"/><polygon class="cls-3" points="158.46 31.73 142 29.59 142 33.87 158.46 31.73"/></g></g></svg>